<?xml version="1.0" encoding="UTF-8"?>
<svg version="1.1" xmlns="http://www.w3.org/2000/svg" width="597" height="596">
<path d="M0 0 C1.74276146 -0.0163055 3.48547825 -0.03848485 5.22808838 -0.06665039 C7.70239766 -0.10243165 10.17527253 -0.11044196 12.64981079 -0.11047363 C13.77523788 -0.13187912 13.77523788 -0.13187912 14.92340088 -0.15371704 C18.42328072 -0.12344797 20.27865054 0.0155508 23.02310181 2.27770996 C23.57151733 2.96171875 24.11993286 3.64572754 24.68496704 4.35046387 C26.33758543 5.37351335 28.00288069 6.3766244 29.68496704 7.35046387 C31.68496704 9.35046387 31.68496704 9.35046387 32.05996704 12.72546387 C31.68496704 16.35046387 31.68496704 16.35046387 30.24746704 18.60046387 C23.39651196 23.2791649 15.65791255 23.85898966 7.57949829 24.19421387 C6.01699593 24.27705627 6.01699593 24.27705627 4.42292786 24.36157227 C1.1149166 24.53641812 -2.19354411 24.69529837 -5.50253296 24.85046387 C-36.12054074 26.19341026 -36.12054074 26.19341026 -62.44003296 40.93249512 C-64.31503296 42.35046387 -64.31503296 42.35046387 -67.31503296 43.35046387 C-67.31503296 44.01046387 -67.31503296 44.67046387 -67.31503296 45.35046387 C-68.71347046 46.72546387 -68.71347046 46.72546387 -70.69003296 48.35046387 C-79.58305511 55.45817162 -79.58305511 55.45817162 -86.31503296 64.35046387 C-86.97503296 64.35046387 -87.63503296 64.35046387 -88.31503296 64.35046387 C-88.56253296 64.90218262 -88.81003296 65.45390137 -89.06503296 66.02233887 C-90.5573777 68.80183094 -92.35175819 71.13193456 -94.31503296 73.60046387 C-95.01628296 74.49249512 -95.71753296 75.38452637 -96.44003296 76.30358887 C-97.05878296 76.97905762 -97.67753296 77.65452637 -98.31503296 78.35046387 C-98.97503296 78.35046387 -99.63503296 78.35046387 -100.31503296 78.35046387 C-100.69788452 79.43327637 -100.69788452 79.43327637 -101.08847046 80.53796387 C-102.39333247 83.53000415 -103.95864676 85.76124207 -105.94003296 88.35046387 C-110.46974397 94.458215 -114.44023608 100.81174414 -118.31503296 107.35046387 C-118.97503296 108.46421387 -119.63503296 109.57796387 -120.31503296 110.72546387 C-145.51497443 154.03786327 -161.41950278 205.61376096 -148.47128296 255.60827637 C-143.5694328 271.79283337 -135.25344959 287.09816047 -120.06503296 295.35046387 C-105.63414257 302.22063009 -90.93375009 304.18500536 -75.12289429 305.16174316 C-72.20894654 305.3575941 -69.30533108 305.61903097 -66.39706421 305.88562012 C-44.22082463 307.75568998 -21.92653011 306.22001111 -0.10018921 302.06921387 C3.19769665 301.44298993 6.49554479 300.88006529 9.80996704 300.35046387 C15.7220507 299.38422305 21.57385051 298.16967797 27.43496704 296.93640137 C30.68496704 296.35046387 30.68496704 296.35046387 34.68496704 296.35046387 C34.51368286 295.4951709 34.34239868 294.63987793 34.16592407 293.75866699 C27.90993096 262.38154557 27.90993096 262.38154557 26.68496704 249.35046387 C25.84578735 249.14743652 25.84578735 249.14743652 24.98965454 248.94030762 C13.08319687 245.74355773 2.43141457 239.8110996 -7.31503296 232.35046387 C-8.25089233 231.64147949 -9.18675171 230.93249512 -10.15097046 230.20202637 C-15.35747968 226.1622419 -15.35747968 226.1622419 -17.31503296 224.35046387 C-17.31503296 223.69046387 -17.31503296 223.03046387 -17.31503296 222.35046387 C-18.30503296 222.02046387 -19.29503296 221.69046387 -20.31503296 221.35046387 C-20.31503296 220.69046387 -20.31503296 220.03046387 -20.31503296 219.35046387 C-20.97503296 219.35046387 -21.63503296 219.35046387 -22.31503296 219.35046387 C-37.91163144 203.19303401 -41.69413557 185.54110881 -41.57577515 163.81286621 C-41.56507811 161.48528817 -41.57572211 159.15848708 -41.58847046 156.83093262 C-41.61465118 131.28749878 -34.74504302 108.87095074 -18.19003296 88.97546387 C-17.74788452 88.43019043 -17.30573608 87.88491699 -16.85018921 87.32312012 C-15.71842138 85.95884409 -14.52136884 84.64927149 -13.31503296 83.35046387 C-12.65503296 83.35046387 -11.99503296 83.35046387 -11.31503296 83.35046387 C-10.91284546 82.45327637 -10.91284546 82.45327637 -10.50253296 81.53796387 C-9.3158589 79.35198533 -8.21904183 77.93713793 -6.31503296 76.35046387 C-5.65503296 76.35046387 -4.99503296 76.35046387 -4.31503296 76.35046387 C-4.31503296 75.69046387 -4.31503296 75.03046387 -4.31503296 74.35046387 C-2.81893921 73.13171387 -2.81893921 73.13171387 -0.87753296 71.85046387 C1.91028551 70.06392757 1.91028551 70.06392757 3.68496704 67.35046387 C4.96778215 66.57025513 6.28760395 65.85033625 7.62246704 65.16296387 C11.01080504 63.34418463 14.09391495 61.38561559 17.18496704 59.10046387 C24.24724075 54.06380355 31.95974716 50.2520364 39.68496704 46.35046387 C40.31564087 46.02513672 40.9463147 45.69980957 41.59609985 45.36462402 C76.05938637 27.66951538 116.7005962 28.620938 153.12319946 40.07434082 C159.20239355 42.08819538 164.9506723 44.49836714 170.68496704 47.35046387 C172.21718684 48.06621265 173.75122202 48.77808133 175.28652954 49.48718262 C176.98196371 50.27468115 178.67727528 51.06244367 180.37246704 51.85046387 C181.16918823 52.21824951 181.96590942 52.58603516 182.78677368 52.96496582 C187.3732867 55.12251115 191.6907668 57.47999434 195.94497681 60.23791504 C197.56934933 61.27653797 199.25108985 62.22387851 200.93496704 63.16296387 C206.38072261 66.24848226 211.52716039 69.81184998 216.68496704 73.35046387 C217.315802 73.78294434 217.94663696 74.2154248 218.59658813 74.66101074 C220.54916747 76.00681821 222.49328885 77.36398616 224.43496704 78.72546387 C225.0557312 79.15423828 225.67649536 79.5830127 226.31607056 80.02478027 C227.8096059 81.08263961 229.25291454 82.21075345 230.68496704 83.35046387 C230.68496704 84.01046387 230.68496704 84.67046387 230.68496704 85.35046387 C231.24184204 85.57733887 231.79871704 85.80421387 232.37246704 86.03796387 C235.33564626 87.71976829 237.30614894 89.91217531 239.68496704 92.35046387 C240.47516235 93.13163574 241.26535767 93.91280762 242.07949829 94.71765137 C248.99165671 101.88664281 253.71428077 109.25144371 257.68496704 118.35046387 C257.95744263 118.96534668 258.22991821 119.58022949 258.51065063 120.21374512 C265.58537324 137.0477751 265.81579895 159.78821104 259.29434204 176.78796387 C258.76324829 177.96358887 258.23215454 179.13921387 257.68496704 180.35046387 C257.39557251 181.01819824 257.10617798 181.68593262 256.80801392 182.37390137 C249.78796865 198.41120224 238.83085523 210.06464571 225.68496704 221.35046387 C224.50090632 222.3863887 223.31735557 223.42289658 222.13418579 224.45983887 C220.85966911 225.56946995 219.58492814 226.67884345 218.30996704 227.78796387 C217.69049194 228.33283447 217.07101685 228.87770508 216.43276978 229.43908691 C211.91197325 233.35046387 211.91197325 233.35046387 209.68496704 233.35046387 C209.68496704 234.01046387 209.68496704 234.67046387 209.68496704 235.35046387 C208.33071899 236.61218262 208.33071899 236.61218262 206.42324829 238.03796387 C205.72320679 238.56672119 205.02316528 239.09547852 204.3019104 239.64025879 C203.54144409 240.20462646 202.78097778 240.76899414 201.99746704 241.35046387 C200.42161659 242.53361873 198.84609855 243.71721645 197.27090454 244.90124512 C196.48812134 245.48728516 195.70533813 246.0733252 194.89883423 246.67712402 C192.98711924 248.12208372 191.09902181 249.58887705 189.22402954 251.08093262 C181.0950963 257.52060392 172.58224563 263.04158506 163.68496704 268.35046387 C162.80647095 268.88453857 161.92797485 269.41861328 161.02285767 269.96887207 C153.92623818 274.2153938 146.66629069 277.88506457 139.14639282 281.32287598 C137.28740374 282.17328563 135.43326101 283.03365104 133.57949829 283.89538574 C128.33005146 286.31536367 123.192915 288.5821252 117.68496704 290.35046387 C115.45331059 291.19810424 113.22442306 292.05305016 110.99746704 292.91296387 C103.27593085 295.8503716 95.45955966 298.48950312 87.62246704 301.10046387 C86.45691284 301.48919678 85.29135864 301.87792969 84.09048462 302.27844238 C68.77703027 307.35046387 68.77703027 307.35046387 63.68496704 307.35046387 C63.81774048 308.08909668 63.95051392 308.82772949 64.08731079 309.58874512 C64.26391235 310.6032373 64.44051392 311.61772949 64.62246704 312.66296387 C64.79649048 313.64909668 64.97051392 314.63522949 65.14981079 315.65124512 C66.44855045 324.6286645 66.87868205 333.53553409 66.87246704 342.60046387 C66.87238647 343.71928955 66.87230591 344.83811523 66.8722229 345.99084473 C66.80286351 356.35313835 66.07630512 366.6199978 64.93643188 376.91711426 C64.77619031 378.46772376 64.64801931 380.02222066 64.56240845 381.57873535 C64.10344138 388.3801394 61.63677427 394.08395854 58.93496704 400.28796387 C58.50442017 401.30825684 58.07387329 402.3285498 57.63027954 403.37976074 C55.20619681 409.06619433 52.59528259 414.61522313 49.79238892 420.12365723 C48.3217295 423.08086282 47.0591643 426.10649602 45.80996704 429.16296387 C37.26749759 449.23447308 37.26749759 449.23447308 30.68496704 452.35046387 C23.12005868 455.14316695 16.33088616 456.31520801 8.68496704 453.35046387 C1.23934421 449.88341812 -2.47607797 442.9706075 -6.74081421 436.31921387 C-16.04803837 421.39294693 -16.04803837 421.39294693 -30.67831421 412.68640137 C-36.44804721 412.04225255 -39.82182416 413.99863182 -44.44003296 417.35046387 C-46.42655447 418.98343034 -48.38686849 420.6489854 -50.31503296 422.35046387 C-51.07171265 423.00788574 -51.82839233 423.66530762 -52.60800171 424.34265137 C-65.67876152 436.52854349 -74.84540861 456.86671342 -75.59237671 474.66687012 C-75.63571265 476.62369227 -75.66816412 478.58078408 -75.69003296 480.53796387 C-75.70413208 481.46496094 -75.7182312 482.39195801 -75.73275757 483.3470459 C-75.64199229 496.21273686 -70.35475953 504.70676464 -61.81503296 514.10046387 C-60.99003296 514.84296387 -60.16503296 515.58546387 -59.31503296 516.35046387 C-58.75557983 516.89058105 -58.19612671 517.43069824 -57.61972046 517.98718262 C-52.36413685 522.89168473 -46.73216713 526.16722757 -40.31503296 529.35046387 C-39.31472046 529.86737793 -38.31440796 530.38429199 -37.28378296 530.91687012 C0.47185874 549.56105457 47.73552388 540.14046525 85.68496704 527.35046387 C91.35734967 525.39932516 96.97377975 523.32223845 102.56777954 521.15759277 C104.64972637 520.36389856 106.74146039 519.60733773 108.84121704 518.86218262 C118.52096374 515.40297009 127.59522136 511.13946709 136.68496704 506.35046387 C137.6143811 505.86964355 138.54379517 505.38882324 139.50137329 504.89343262 C145.51042005 501.71001395 151.31577481 498.19764782 157.12246704 494.66296387 C158.29591675 493.94886353 158.29591675 493.94886353 159.49307251 493.22033691 C160.23573364 492.76441162 160.97839478 492.30848633 161.74356079 491.83874512 C162.40670288 491.4318042 163.06984497 491.02486328 163.75308228 490.60559082 C165.75834594 489.34235959 165.75834594 489.34235959 167.80630493 487.69494629 C169.68496704 486.35046387 169.68496704 486.35046387 171.68496704 486.35046387 C171.68496704 485.69046387 171.68496704 485.03046387 171.68496704 484.35046387 C173.49501348 482.91788196 175.36019444 481.55465954 177.24746704 480.22546387 C185.78109388 474.01645857 193.54862281 466.30106312 196.37246704 455.79187012 C196.85287431 452.03868834 195.7730563 449.38239534 193.68496704 446.35046387 C181.29990063 433.91324981 161.91225232 431.30269001 145.07266235 431.16003418 C123.29662571 431.09039878 123.29662571 431.09039878 102.68496704 437.35046387 C96.53033978 439.62995544 90.19334075 440.17509432 83.68496704 439.35046387 C80.87459213 437.92125611 78.91200192 436.57749874 76.68496704 434.35046387 C75.92935843 429.56252082 75.66183204 424.58346573 77.71231079 420.10827637 C81.46564386 415.26325362 85.87499356 413.69920771 91.68496704 412.35046387 C92.61309204 412.10812012 93.54121704 411.86577637 94.49746704 411.61608887 C128.17779587 403.52620596 171.78532113 401.23517484 202.75918579 419.42468262 C206.5739107 421.93557631 210.30667623 424.53594292 213.99746704 427.22546387 C214.66777954 427.70700928 215.33809204 428.18855469 216.02871704 428.68469238 C222.24631817 433.35642537 227.91607657 439.12008151 229.44277954 447.01843262 C230.75165506 459.62163719 229.62613054 469.27372851 221.68496704 479.35046387 C210.79043404 492.11696771 199.00351446 501.68492218 184.68496704 510.35046387 C183.95471313 510.7926123 183.22445923 511.23476074 182.47207642 511.69030762 C154.77713612 528.19463101 123.17829981 540.36935176 92.71524048 550.66052246 C90.588215 551.38334281 88.46869727 552.12589655 86.34902954 552.86999512 C78.47923383 555.60251515 70.56851294 558.03166158 62.49746704 560.10046387 C61.73909546 560.29906006 60.98072388 560.49765625 60.19937134 560.70227051 C45.41408254 564.35518018 30.78722846 564.6957061 15.64273071 564.6661377 C12.25739439 564.66297315 8.8729307 564.68653092 5.48770142 564.71179199 C-18.72185173 564.7828876 -39.00417912 559.8622558 -60.31503296 548.35046387 C-61.41202515 547.76007324 -62.50901733 547.16968262 -63.63925171 546.56140137 C-70.42185479 542.75758556 -76.38023876 538.3592618 -82.31503296 533.35046387 C-82.95956421 532.83999512 -83.60409546 532.32952637 -84.26815796 531.80358887 C-85.6566609 530.70057251 -86.99349809 529.5328898 -88.31503296 528.35046387 C-88.31503296 527.69046387 -88.31503296 527.03046387 -88.31503296 526.35046387 C-88.97503296 526.35046387 -89.63503296 526.35046387 -90.31503296 526.35046387 C-91.82284546 524.88952637 -91.82284546 524.88952637 -93.44003296 522.97546387 C-93.97886108 522.34897949 -94.51768921 521.72249512 -95.07284546 521.07702637 C-96.31503296 519.35046387 -96.31503296 519.35046387 -96.31503296 517.35046387 C-96.97503296 517.35046387 -97.63503296 517.35046387 -98.31503296 517.35046387 C-99.62245508 515.21298073 -100.91043321 513.06703057 -102.19003296 510.91296387 C-102.55483765 510.32063965 -102.91964233 509.72831543 -103.29550171 509.11804199 C-108.85932319 499.65954547 -108.75454772 489.62589575 -108.75253296 478.91296387 C-108.7539328 478.20281128 -108.75533264 477.49265869 -108.7567749 476.76098633 C-108.73815225 465.27064883 -107.51463208 455.1032836 -103.31503296 444.35046387 C-102.90768921 443.23155762 -102.50034546 442.11265137 -102.08065796 440.95983887 C-94.86248653 422.30508413 -82.01720892 407.98297747 -65.56503296 396.91296387 C-64.95135864 396.49981934 -64.33768433 396.0866748 -63.70541382 395.66101074 C-51.23827179 387.53209152 -37.17921834 386.93521156 -22.69003296 388.91296387 C-9.84624709 391.7009114 4.12575569 400.42202783 12.43106079 410.59655762 C14.390511 413.37361708 14.390511 413.37361708 16.68496704 414.35046387 C17.07684204 413.09233887 17.46871704 411.83421387 17.87246704 410.53796387 C19.41583194 405.89330911 21.37410005 401.52328928 23.43496704 397.08874512 C24.93139761 393.8106269 26.27405462 390.4905377 27.58731079 387.13562012 C28.41624269 385.03231603 29.26629445 382.93731838 30.12637329 380.84655762 C30.38362183 380.21781738 30.64087036 379.58907715 30.90591431 378.94128418 C31.64199587 377.14294764 32.3821073 375.3462621 33.12246704 373.54968262 C33.65134885 372.15296421 34.17110404 370.75277734 34.68496704 369.35046387 C35.0371228 368.41822998 35.38927856 367.48599609 35.75210571 366.5255127 C38.77408708 357.80941872 39.19861432 349.81905482 38.99746704 340.66296387 C38.98592926 339.31336848 38.97615802 337.96375681 38.96817017 336.61413574 C38.8872649 329.47688408 38.57737506 322.43414912 37.68496704 315.35046387 C36.46809204 315.65339355 35.25121704 315.95632324 33.99746704 316.26843262 C2.33397639 323.92219029 -30.74725687 328.57851786 -63.31503296 329.35046387 C-64.35989868 329.37535889 -64.35989868 329.37535889 -65.4258728 329.40075684 C-69.72635591 329.48602957 -74.01526026 329.45522023 -78.31503296 329.35046387 C-79.5099939 329.32210449 -80.70495483 329.29374512 -81.93612671 329.26452637 C-107.53177039 328.1269422 -130.754465 318.71593929 -149.58847046 301.24108887 C-151.31503296 299.35046387 -151.31503296 299.35046387 -151.31503296 297.35046387 C-151.97503296 297.35046387 -152.63503296 297.35046387 -153.31503296 297.35046387 C-166.22801705 279.74724647 -173.42724267 259.13940476 -173.51815796 237.34655762 C-173.52385803 236.27285416 -173.52955811 235.1991507 -173.53543091 234.09291077 C-173.54486555 231.8158974 -173.55140878 229.53887047 -173.55526733 227.26184082 C-173.56485387 223.85166904 -173.59584171 220.44213191 -173.62753296 217.03210449 C-173.71517701 199.12760617 -172.17577763 181.83859854 -167.62753296 164.47546387 C-167.37189575 163.48336914 -167.11625854 162.49127441 -166.85287476 161.46911621 C-156.45219291 122.26583079 -139.20023236 82.12727988 -111.62753296 51.87390137 C-110.22166258 50.36787961 -110.22166258 50.36787961 -109.31503296 48.35046387 C-108.65503296 48.35046387 -107.99503296 48.35046387 -107.31503296 48.35046387 C-107.04626343 47.76168457 -106.7774939 47.17290527 -106.50057983 46.56628418 C-104.54042486 42.90269963 -101.64079016 40.11623945 -98.81503296 37.10046387 C-98.22077515 36.45077637 -97.62651733 35.80108887 -97.01425171 35.13171387 C-96.44319702 34.51812012 -95.87214233 33.90452637 -95.28378296 33.27233887 C-94.76235718 32.71127441 -94.2409314 32.15020996 -93.70370483 31.57214355 C-92.31503296 30.35046387 -92.31503296 30.35046387 -90.31503296 30.35046387 C-90.31503296 29.69046387 -90.31503296 29.03046387 -90.31503296 28.35046387 C-88.31406679 26.54412055 -86.31464259 24.87623166 -84.19003296 23.22546387 C-83.56346802 22.73626465 -82.93690308 22.24706543 -82.29135132 21.74304199 C-57.7665794 3.01670336 -29.89853842 0.2655763 0 0 Z M91.98965454 55.27624512 C71.040065 55.73801101 49.50204214 68.77953173 32.68496704 80.35046387 C32.12970337 80.73202637 31.5744397 81.11358887 31.00234985 81.50671387 C10.57065201 95.62035296 -9.03342058 115.1759405 -13.94784546 140.62780762 C-16.3632362 158.58988 -19.08146032 181.09093475 -7.70956421 196.53015137 C-5.94172385 198.82947464 -4.13389333 201.09142268 -2.31503296 203.35046387 C-1.17034546 204.86640137 -1.17034546 204.86640137 -0.00253296 206.41296387 C0.83277954 207.37202637 0.83277954 207.37202637 1.68496704 208.35046387 C2.34496704 208.35046387 3.00496704 208.35046387 3.68496704 208.35046387 C3.68496704 209.01046387 3.68496704 209.67046387 3.68496704 210.35046387 C6.32181451 212.74866692 6.32181451 212.74866692 9.68496704 213.35046387 C9.68496704 214.01046387 9.68496704 214.67046387 9.68496704 215.35046387 C11.7580365 216.91728475 11.7580365 216.91728475 14.37246704 218.41296387 C15.67764282 219.20380371 15.67764282 219.20380371 17.00918579 220.01062012 C19.63422051 221.32505356 21.81739146 221.83877194 24.68496704 222.35046387 C24.70478638 221.51088135 24.72460571 220.67129883 24.74502563 219.80627441 C26.38473438 153.58831273 26.38473438 153.58831273 46.89981079 128.65905762 C48.88887175 126.57315175 48.88887175 126.57315175 48.68496704 124.35046387 C49.34496704 124.35046387 50.00496704 124.35046387 50.68496704 124.35046387 C52.05473233 123.05458633 53.383222 121.71465425 54.68496704 120.35046387 C67.24531843 108.36820396 81.89227571 108.79768067 98.29434204 109.01452637 C105.89687979 109.27216256 112.63971974 110.53236495 119.68496704 113.35046387 C122.39383645 113.51844649 122.39383645 113.51844649 124.68496704 113.35046387 C124.68496704 114.01046387 124.68496704 114.67046387 124.68496704 115.35046387 C126.33496704 115.68046387 127.98496704 116.01046387 129.68496704 116.35046387 C129.68496704 117.01046387 129.68496704 117.67046387 129.68496704 118.35046387 C131.40297986 119.7168404 131.40297986 119.7168404 133.55996704 120.97546387 C134.63891235 121.6444873 134.63891235 121.6444873 135.73965454 122.32702637 C137.61361466 123.50566385 137.61361466 123.50566385 139.68496704 123.35046387 C139.68496704 124.01046387 139.68496704 124.67046387 139.68496704 125.35046387 C142.90610861 127.66638409 142.90610861 127.66638409 146.68496704 128.35046387 C146.68496704 129.01046387 146.68496704 129.67046387 146.68496704 130.35046387 C150.16495211 133.98679926 150.16495211 133.98679926 154.68496704 135.35046387 C155.06201782 136.2051123 155.06201782 136.2051123 155.44668579 137.07702637 C156.84816158 139.65008286 158.54743764 141.54053609 160.49746704 143.72546387 C168.63318142 153.8765829 171.10270833 165.4380052 169.97158813 178.1595459 C168.34487645 190.59405244 163.37783462 203.32223228 155.47012329 213.08483887 C153.47866786 215.13155224 153.47866786 215.13155224 153.68496704 217.35046387 C153.02496704 217.35046387 152.36496704 217.35046387 151.68496704 217.35046387 C150.47718298 218.79478103 149.27314884 220.24251724 148.09463501 221.71081543 C140.74182829 230.26319678 129.52179793 236.15407569 119.68496704 241.35046387 C119.10577515 241.6695874 118.52658325 241.98871094 117.92984009 242.31750488 C111.92310654 245.50948512 105.59643719 247.50459552 99.12246704 249.53796387 C98.02483032 249.89310059 96.9271936 250.2482373 95.79629517 250.61413574 C86.01379901 253.72165562 76.96574773 254.55860621 66.74746704 254.91296387 C65.58666626 254.95614746 64.42586548 254.99933105 63.22988892 255.04382324 C60.38168472 255.14931229 57.53340175 255.25142941 54.68496704 255.35046387 C55.2527336 263.04493977 56.61356788 270.44213608 58.24746704 277.97546387 C58.48143188 279.07503418 58.71539673 280.17460449 58.95645142 281.30749512 C59.52784498 283.98954653 60.10409517 286.67045227 60.68496704 289.35046387 C88.83934706 282.95669499 116.62288377 271.53725875 141.68496704 257.35046387 C142.33401001 256.98598145 142.98305298 256.62149902 143.65176392 256.24597168 C151.85725588 251.60220425 159.41678719 246.4991636 166.78262329 240.61218262 C169.68496704 238.35046387 169.68496704 238.35046387 172.91543579 236.19812012 C175.73377262 234.44850606 175.73377262 234.44850606 177.93496704 232.10046387 C181.14037389 228.89505702 184.60546114 226.18708094 188.18496704 223.41296387 C190.86870428 221.19888065 193.25319766 218.83936733 195.68496704 216.35046387 C196.89324141 215.13946893 198.10298986 213.92994373 199.31387329 212.72155762 C199.95647095 212.07895996 200.5990686 211.4363623 201.26113892 210.77429199 C203.23705037 208.79838053 205.21296183 206.82246908 207.18887329 204.84655762 C207.80045288 204.23393066 208.41203247 203.62130371 209.04214478 202.9901123 C210.33464307 201.70011103 211.63692747 200.41991431 212.94277954 199.14343262 C216.18356684 195.80818291 218.89567464 192.06367283 221.68496704 188.35046387 C222.28953735 187.56284668 222.89410767 186.77522949 223.51699829 185.96374512 C233.28550364 172.747532 238.27997049 156.78437579 236.68496704 140.35046387 C232.64591752 119.24243672 219.82787301 104.35928963 202.63809204 92.19421387 C199.68028045 90.20190554 196.68940082 88.27152943 193.68496704 86.35046387 C192.3971936 85.4745459 192.3971936 85.4745459 191.08340454 84.58093262 C183.67504056 79.62337182 175.81786296 75.95203063 167.72158813 72.28503418 C165.89112075 71.44506425 164.07778568 70.56799614 162.26699829 69.68640137 C140.00012079 58.89872159 116.46401669 55.76780207 91.98965454 55.27624512 Z " fill="#000000" transform="translate(261.3150329589844,16.6495361328125)"/>
<path d="M0 0 C9.41131062 7.63559164 19.80346902 16.49023307 22 29 C22.27069073 34.17388424 21.60018285 38.82310662 20.3125 43.8125 C20.13243408 44.51318604 19.95236816 45.21387207 19.7668457 45.93579102 C17.20690555 55.42648755 12.86052728 63.84569699 6 71 C5.34 71 4.68 71 4 71 C3.505 72.485 3.505 72.485 3 74 C-7.21888357 82.95236659 -19.40993546 89.99846751 -32 95 C-33.41152344 95.59167969 -33.41152344 95.59167969 -34.8515625 96.1953125 C-47.3433563 100.6278845 -66.64004287 102.2573527 -79 97 C-82.07025768 90.70906856 -81.34327649 83.2935202 -81.3125 76.4375 C-81.30758545 75.15206299 -81.3026709 73.86662598 -81.29760742 72.54223633 C-80.96504395 45.06908226 -76.1350647 17.61035755 -55.75 -2.375 C-41.01943373 -14.80314162 -14.66518932 -10.22622112 0 0 Z " fill="#FEAE03" transform="translate(392,155)"/>
<path d="" fill="#000000" transform="translate(0,0)"/>
<path d="" fill="#000000" transform="translate(0,0)"/>
</svg>
